<?xml version="1.0" encoding="UTF-8" standalone="no"?>
<!-- Created with Inkscape (http://www.inkscape.org/) -->
<svg id="svg2" xmlns:rdf="http://www.w3.org/1999/02/22-rdf-syntax-ns#" xmlns="http://www.w3.org/2000/svg" height="1289.8" width="1179.9" version="1.1" xmlns:cc="http://creativecommons.org/ns#" xmlns:dc="http://purl.org/dc/elements/1.1/">
 <defs id="defs4"></defs>
 <metadata id="metadata7">
  <rdf:RDF>
   <cc:Work rdf:about="">
    <dc:format>image/svg+xml</dc:format>
    <dc:type rdf:resource="http://purl.org/dc/dcmitype/StillImage"/>
    <dc:title/>
   </cc:Work>
  </rdf:RDF>
 </metadata>
 <g id="layer1" transform="translate(0,237.39839)">
  <g id="g3002" stroke="#000" fill="none" transform="translate(2.320613,-2.6555411)">
   <path id="rect3755" d="m30.336-201.87,0,1223.9,1115.1,0,0-1223.9-1115.1,0z" stroke-miterlimit="4" stroke-dasharray="none" stroke-width="3.98476338"/>
   <path id="path4218" stroke-linejoin="miter" d="m28.346,170.08,1116.1,0" transform="translate(0,-237.40221)" stroke-linecap="butt" stroke-width="1px"/>
   <path id="path4220" stroke-linejoin="miter" d="m28.346,306.5,1116.1,0" transform="translate(0,-237.40221)" stroke-linecap="butt" stroke-width="1px"/>
   <path id="path4222" stroke-linejoin="miter" d="m28.346,442.91,1116.1,0" transform="translate(0,-237.40221)" stroke-linecap="butt" stroke-width="1px"/>
   <path id="path4224" stroke-linejoin="miter" d="m28.346,579.33,1116.1,0" transform="translate(0,-237.40221)" stroke-linecap="butt" stroke-width="1px"/>
   <path id="path4226" stroke-linejoin="miter" d="m28.346,715.75,1116.1,0" transform="translate(0,-237.40221)" stroke-linecap="butt" stroke-width="1px"/>
   <path id="path4228" stroke-linejoin="miter" d="m28.346,852.17,1116.1,0" transform="translate(0,-237.40221)" stroke-linecap="butt" stroke-width="1px"/>
   <path id="path4230" stroke-linejoin="miter" d="m28.346,988.58,1116.1,0" transform="translate(0,-237.40221)" stroke-linecap="butt" stroke-width="1px"/>
   <path id="path4232" stroke-linejoin="miter" d="m28.346,1125,1116.1,0" transform="translate(0,-237.40221)" stroke-linecap="butt" stroke-width="1px"/>
   <path id="path4234" stroke-linejoin="miter" d="m152.36,33.661,0,1227.8" transform="translate(0,-237.40221)" stroke-linecap="butt" stroke-width="1px"/>
   <path id="path4236" stroke-linejoin="miter" d="m276.38,33.661,0,1227.8" transform="translate(0,-237.40221)" stroke-linecap="butt" stroke-width="1px"/>
   <path id="path4238" stroke-linejoin="miter" d="m400.39,33.661,0,1227.8" transform="translate(0,-237.40221)" stroke-linecap="butt" stroke-width="1px"/>
   <path id="path4240" stroke-linejoin="miter" d="m524.41,33.661,0,1227.8" transform="translate(0,-237.40221)" stroke-linecap="butt" stroke-width="1px"/>
   <path id="path4242" stroke-linejoin="miter" d="m648.43,33.661,0,1227.8" transform="translate(0,-237.40221)" stroke-linecap="butt" stroke-width="1px"/>
   <path id="path4244" stroke-linejoin="miter" d="m772.44,33.661,0,1227.8" transform="translate(0,-237.40221)" stroke-linecap="butt" stroke-width="1px"/>
   <path id="path4246" stroke-linejoin="miter" d="m896.46,33.661,0,1227.8" transform="translate(0,-237.40221)" stroke-linecap="butt" stroke-width="1px"/>
   <path id="path4248" stroke-linejoin="miter" d="m1020.5,33.661,0,1227.8" transform="translate(0,-237.40221)" stroke-linecap="butt" stroke-width="1px"/>
  </g>
 </g>
</svg>
