<?xml version="1.0" encoding="UTF-8" standalone="no"?>
<!-- Created with Inkscape (http://www.inkscape.org/) -->
<svg id="svg2" xmlns:rdf="http://www.w3.org/1999/02/22-rdf-syntax-ns#" xmlns="http://www.w3.org/2000/svg" height="37.599" width="31.702" version="1.1" xmlns:cc="http://creativecommons.org/ns#" xmlns:dc="http://purl.org/dc/elements/1.1/">
 <metadata id="metadata7">
  <rdf:RDF>
   <cc:Work rdf:about="">
    <dc:format>image/svg+xml</dc:format>
    <dc:type rdf:resource="http://purl.org/dc/dcmitype/StillImage"/>
    <dc:title/>
   </cc:Work>
  </rdf:RDF>
 </metadata>
 <g id="layer1" transform="translate(-574.48845,-652.84306)">
  <g id="g3810">
   <path id="path3040" fill="#feec93" d="M20.577,6.3002c-3.08,0.7778-6.144,1.6189-9.18,2.553-0.351,0.1228-0.85,0.1984-0.904,0.651-0.5322,2.5688-0.8848,5.1778-1.3054,7.7688-1.3016,8.463-2.5403,16.94-3.8357,25.403,0.11694,0.51199,0.76236,0.31868,1.1364,0.36057,9.6957,0.01867,19.392,0.02221,29.087-0.02517,0.50459-0.11707,0.20938-0.71585,0.2091-1.0592-1.512-9.867-2.914-19.751-4.509-29.604-0.209-1.02-0.262-2.092-0.614-3.0736-0.261-0.374-0.807-0.3518-1.195-0.5297-2.881-0.8544-5.769-1.7046-8.686-2.4298-0.067-0.0124-0.134-0.0235-0.203-0.0157zm3.8275,4.6976c0.27479-0.06765,0.69171,0.12423,0.57018,0.45772-0.29778,0.47299-0.9538,0.46974-1.4422,0.58794-0.8197,0.16717-1.6968,0.08547-2.4859,0.36302-0.47421,0.26676-0.13448,0.85346-0.05735,1.2444,0.18582,0.46642,0.20788,1.0503,0.56834,1.4211,0.70694,0.27523,1.5067,0.01162,2.2354,0.18348,0.18657,0.10034,0.51574,0.25008,0.51889,0.47943-0.58738,0.27985-1.2902,0.16367-1.9253,0.26483-0.4858-0.0083-0.98505,0.2612-1.1012,0.76308-0.19358,0.71679-0.44003,1.4457-0.46562,2.19,0.12544,0.49763,0.76729,0.35234,1.1502,0.37226,1.2088-0.0047,2.3988-0.29647,3.6026-0.29334,0.62845,0.03794,1.3407,0.07342,1.7954,0.56426,0.07645,0.09963,0.36331,0.27574,0.25254,0.40446-0.5223,0.23684-1.1416,0.10519-1.7027,0.15192-2.1955,0.02692-4.394-0.1015-6.5875-0.0064-1.2767,0.06393-2.4256,0.80371-3.6936,0.84098-0.98219-0.0702-1.777-0.7755-2.3636-1.5133-0.06123-0.1562,0.31578,0.0021,0.43137-0.01031,1.4003,0.32018,2.8459,0.50264,4.2796,0.31102,0.48758-0.08471,1.0187-0.04767,1.4683-0.25928,0.17805-0.51136,0.01316-1.0881,0.05184-1.6257-0.04166-0.51864,0.08384-1.2971-0.51154-1.5429-0.63639-0.14694-1.3185-0.0053-1.9355-0.26832-0.4279-0.13617-0.82697-0.34752-1.2173-0.57018,1.0605-0.003,2.1555,0.21518,3.1962-0.0513,0.61121-0.26435,0.5232-1.0723,0.44786-1.6119-0.07419-0.51974-0.24222-1.1958-0.86613-1.2686-1.1044-0.12583-2.3611-0.16601-3.1903-1.0003-0.27995-0.24981,0.19127-0.03853,0.35119-0.01578,2.4498,0.50963,4.9654,0.0208,7.3899-0.41843,0.41118-0.06398,0.82169-0.13204,1.2359-0.14386zm1.9078,11.94c0.41043-0.05429,0.75531,0.30496,0.91348,0.63529-0.38058,0.50696-1.1059,0.41784-1.6687,0.53639-0.78066,0.1181-1.7798,0.07564-2.2812,0.7993-0.30467,0.7383-0.43504,1.5454-0.64713,2.3123-0.03454,0.47771,0.56888,0.64586,0.93715,0.47548,1.1362-0.2809,2.203-0.87262,3.3619-1.022,0.58182-0.07332,1.1117,0.27986,1.5902,0.57216,0.42402,0.30718,0.1379,0.88515-0.12035,1.2055-0.2989,0.4942-0.87802,0.83922-1.0042,1.4205,0.03173,0.55179,0.75293,0.4251,0.9924,0.83456,0.33852,0.4214,0.78379,0.88515,1.383,0.77734,0.74977-0.02946,1.4613-0.42702,2.2077-0.30581,0.47084,0.22457,0.81454,0.66366,1.0772,1.1049-1.2315-0.0024-2.4545-0.11142-3.6736-0.2624-0.49308,0.09794-0.22434,0.6776-0.21308,1.0082,0.34564,2.1724,0.48086,4.4271,0.08089,6.5995-0.04253,0.32923-0.34511,0.7989-0.72407,0.57018-0.82657-0.52799-1.3212-1.4436-2.1005-2.0428-0.29161-0.24785-0.60306-0.47154-0.93589-0.66012,0.78187-0.07777,1.6427,0.04203,2.3557-0.34329,0.62282-0.50966,0.45082-1.4179,0.43208-2.1249-0.10048-0.88132-0.10836-1.7955-0.32229-2.6514-0.26921-0.30516-0.76853-0.06519-1.1332-0.11852-2.6278,0.09068-5.1852,0.77118-7.7819,1.1107-0.61725,0.09455-1.0682-0.43896-1.4718-0.81286-0.11096-0.07817-0.14461-0.3485,0.05919-0.25254,1.3604,0.16176,2.7419,0.10894,4.1094,0.06686,1.7492-0.11561,3.5044-0.3109,5.2108-0.71793,0.41543-0.07423,0.79847-0.50864,0.56032-0.92926-0.1826-0.48565-0.66478-0.86501-1.2015-0.72999-1.3088,0.2446-2.6119,0.69972-3.9597,0.50508,1.7901-0.59442,3.8146-0.87542,5.2658-2.1979,0.38794-0.32687,0.62905-1.0608,0.12232-1.3909-0.61413-0.26654-1.2715,0.12186-1.8475,0.32267-0.91579,0.39442-1.8516,0.89198-2.8836,0.78706-0.71991-0.0717-1.3096,0.38774-1.7993,0.85336-0.28851,0.20176-0.68938,0.6033-1.0536,0.36105-0.26586-0.37358,0.0784-0.82273,0.32948-1.1029,0.70247-0.85656,1.5893-1.5639,2.2235-2.4741,0.25085-0.53196-0.39462-0.88223-0.74972-1.1404-0.22145-0.1434-0.46482-0.24851-0.68067-0.40051,1.4085-0.22851,2.8621-0.412,4.1649-1.0378,0.27946-0.1115,0.57738-0.13873,0.87599-0.14008zm-11.737,1.1483c0.99097,0.08138,2.0463,0.79065,2.0677,1.8605,0.09141,1.3742-0.44055,2.6845-0.56032,4.0426-0.36007,2.4822-0.38272,5.0004-0.63529,7.4893-0.14195,0.81555-0.20301,1.7208-0.68067,2.4188-0.23942,0.2687-0.50627-0.16813-0.63924-0.34329-0.4478-0.69512-0.88301-1.469-1.2686-2.1584,0.46142,0.22053,0.94283,0.62366,1.4758,0.53072,0.46834-0.27795,0.35656-0.93923,0.5031-1.3949,0.27223-1.5189,0.41428-3.0598,0.48535-4.597-0.19835-0.4835-0.76293-0.12684-1.0813,0.0087-0.81434,0.4375-1.7766,0.73118-2.3852,1.4651-0.45236,0.64947-0.16002,1.4945-0.45263,2.2016-0.18028,0.48912-0.34139,1.13-0.86135,1.3557-0.21664,0.03835-0.42044-0.21003-0.30581-0.42418,0.163-0.97373,0.70932-1.8367,0.90164-2.8016,0.02234-0.38784-0.36804-0.60185-0.69645-0.63924-0.4316-0.25636-0.82378-0.68721-0.99831-1.1364,1.1407,0.14293,2.3231,0.64176,3.4615,0.19781,0.767-0.28054,1.5774-0.55294,2.2147-1.0778,0.4534-0.4287,0.4776-1.1041,0.44983-1.6829-0.10353-0.36716-0.5313-0.23964-0.74972-0.06313-0.70454,0.3741-1.3675,0.84886-2.1288,1.095-0.62952,0.10729-1.2347-0.25806-1.6533-0.69448,0.59-0.08573,1.2241,0.03135,1.7954-0.14205,0.21574-0.44589,0.04059-0.97857,0.01381-1.458-0.0542-0.74979-0.38198-1.4987-0.80891-2.0637,0.589,0.09818,1.1779,0.40407,1.4225,0.9845,0.27068,0.40816,0.25003,0.90481,0.15586,1.3653-0.04296,0.44018,0.47735,0.678,0.83259,0.47154,0.71368-0.17256,1.4678-0.69327,1.4442-1.5093,0.07031-1.1868-0.91714-2.0162-1.4758-2.9496-0.06683-0.15515-0.10092-0.41392,0.15784-0.35119zm8.4541,9.6635c0.57067,0.08326,1.0777,0.53752,1.3041,1.0555,0.08244,0.4374-0.46633,0.63596-0.78129,0.79116-0.80845,0.34536-1.6826,0.54557-2.5688,0.48535,0.6592-0.31119,1.5035-0.47711,1.8921-1.1522,0.0308-0.37564-0.04803-0.7824,0.03551-1.1443,0.0324-0.0292,0.07642-0.03447,0.11838-0.03551z" transform="translate(569.71428,647.00505)"/>
   <path id="path3010" fill="#d0d0d0" d="m574.61,689.74c0.0644-0.38671,1.2372-8.2118,2.6062-17.389,1.369-9.1773,2.5273-16.716,2.5739-16.753,0.28005-0.22008,9.9588-2.6551,10.554-2.6551,0.59475,0,10.274,2.435,10.554,2.6551,0.0466,0.0367,1.2049,7.5754,2.5739,16.753,1.369,9.1773,2.5418,17.002,2.6062,17.389l0.11713,0.70313h-15.851-15.851l0.11713-0.70313zm30.339-1.0938c-0.0883-0.47265-1.1823-7.8203-2.4311-16.328-1.2488-8.5078-2.3657-15.579-2.4819-15.713-0.11621-0.13419-2.3445-0.82347-4.9517-1.5317l-4.7404-1.2877-4.7404,1.2877c-2.6072,0.70824-4.8355,1.3975-4.9517,1.5317-0.11621,0.1342-1.2331,7.2049-2.4819,15.713-1.2488,8.5078-2.3429,15.855-2.4311,16.328l-0.1605,0.85938h14.766,14.766l-0.16051-0.85938zm-8.163-2.1456c-0.4959-0.62151-1.5506-1.4301-2.3438-1.7969l-1.4421-0.66686,2.2656-0.0918,2.2656-0.0918v-1.1972c0-0.65848-0.0814-1.6042-0.18087-2.1016-0.16901-0.84505-0.26634-0.89794-1.4844-0.80661-0.71693,0.0538-1.6127,0.16276-1.9905,0.2422l-0.68701,0.14445,0.77725,0.77725c0.64469,0.64469,0.71865,0.88675,0.43363,1.4193-0.43845,0.81925-1.5451,1.2371-3.2763,1.2371-1.8378,0-2.0195-0.47207-0.39067-1.0148,1.3572-0.45225,1.7111-0.97782,1.1972-1.7776-0.23665-0.36829-0.55513-0.38766-1.7768-0.10809-1.7841,0.40826-2.7994,0.10048-3.3012-1.0007-0.46885-1.029-0.18027-1.2718,0.95347-0.8022,0.93843,0.38871,2.3058,0.31722,6.8355-0.35735,2.0724-0.30863,2.6609-0.59546,2.0263-0.98767-0.13162-0.0813-0.98087,0.0445-1.8872,0.27956-0.90635,0.23511-1.8182,0.37542-2.0263,0.31181-0.20813-0.0636-0.79295-0.20737-1.2996-0.31947-1.2018-0.26591-0.62878-0.6436,1.7024-1.1221,1.9798-0.40636,4.0625-1.465,4.0625-2.0651,0-0.58896-0.36134-0.51808-2.1866,0.42892-1.2398,0.64322-1.7409,0.7626-2.1382,0.50936-0.40838-0.26032-0.73832-0.13906-1.5491,0.56933-0.83727,0.73157-1.1445,0.83894-1.6406,0.5734-0.97876-0.52382-0.72102-1.2554,1.0302-2.924,1.4466-1.3784,1.5621-1.5766,0.97633-1.6762-0.36536-0.0621-0.98753-0.45694-1.3826-0.87748l-0.71831-0.7646,1.6951-0.007c1.0134-0.004,2.2483-0.25787,3.0707-0.63098,1.5233-0.69112,2.3583-0.58064,2.8724,0.38006,0.4906,0.91669,0.0277,1.221-2.1586,1.4193-1.8138,0.16448-1.8881,0.20521-1.8649,1.0224,0.0133,0.46809-0.0752,1.012-0.19677,1.2086-0.32321,0.52297,0.82691,0.44797,1.5531-0.10128,1.2683-0.95929,4.5128-0.29691,4.5128,0.92131,0,0.23488-0.36406,0.85972-0.80903,1.3885-0.64103,0.76182-0.70389,0.96148-0.30269,0.96148,0.27848,0,0.59317,0.22628,0.69929,0.50283,0.1572,0.40965,0.48065,0.46468,1.7452,0.29693,1.7219-0.22842,2.7297,0.31774,2.7297,1.4793,0,0.57512-0.14477,0.6049-2.0114,0.41366l-2.0113-0.20607,0.29259,1.0202c0.42859,1.4944,0.36998,6.2907-0.0824,6.7431-0.6811,0.68109-1.6372,0.39888-2.5579-0.75503zm-14.179-0.96234c-0.56008-0.96603-0.94739-1.8274-0.8607-1.914,0.13359-0.13358,0.53815,0.0236,2.0852,0.80989,0.23603,0.11997,0.7284-4.5668,0.50341-4.7918-0.0813-0.0813-0.69603,0.10097-1.3662,0.40496-1.0846,0.49201-1.2222,0.6801-1.253,1.7128-0.0424,1.42-0.85898,2.7456-1.6913,2.7456-0.80245,0-0.80287-0.96828-0.001-2.7344,0.57883-1.2752,0.58008-1.3281,0.0314-1.3281-0.6614,0-1.1015-0.47206-1.4266-1.5301-0.20753-0.67548-0.15768-0.72788,0.50863-0.53471,1.8759,0.54385,2.7809,0.54986,4.1486,0.0275,1.0214-0.39009,1.4339-0.72169,1.4339-1.1528,0-0.58789-0.0236-0.58667-0.82339,0.0425-1.0423,0.81986-2.4322,0.82959-3.2391,0.0227-0.95351-0.95351-0.78603-1.3085,0.50318-1.0667l1.1282,0.21165-0.21911-1.3694c-0.12051-0.75315-0.41726-1.5255-0.65944-1.7163-0.64758-0.51026-0.5396-0.7468,0.34093-0.7468,0.42969,0,1.0625,0.28125,1.4062,0.625,0.34375,0.34375,0.625,0.97656,0.625,1.4062,0,0.85064,0.0265,0.87138,0.75569,0.59156,0.70704-0.27131,0.63101-1.9379-0.11737-2.5727-0.33642-0.28537-0.70708-0.92093-0.8237-1.4124-0.20814-0.87719-0.19267-0.88943,0.84605-0.66939,2.2427,0.47509,2.966,2.1217,2.1289,4.8462-0.18448,0.60043-0.45156,3.1308-0.59351,5.6229-0.14195,2.4922-0.43545,4.918-0.65224,5.3906-0.64593,1.4083-1.5447,1.104-2.7184-0.92048zm1.6084-17.276c-0.90651-0.36627-2.0865-1.916-1.7302-2.2723,0.17033-0.17033,0.76803-0.1496,1.4933,0.0518,0.66514,0.18469,2.0179,0.33658,3.0062,0.33754l1.7969,0.002v-1.4204-1.4204l-1.0156,0.18068c-0.71706,0.12756-1.3142-0.005-2.0312-0.45-1.5186-0.94298-1.2601-1.2649,1.0156-1.2649h2.0312v-1.1122c0-0.68813-0.12352-1.0358-0.32397-0.91197-0.62671,0.38733-2.7719-0.21944-3.5592-1.0067-0.87696-0.87696-0.79402-1.5278,0.13157-1.0325,0.90279,0.48315,5.3192,0.37092,7.1829-0.18253,1.8169-0.53957,3.1312-0.26585,3.1312,0.65212,0,0.58599-0.932,0.99427-2.8349,1.2419-1.3758,0.17904-1.4236,0.22039-1.2921,1.1165,0.16307,1.1111,0.49646,1.3745,1.2243,0.96718,0.5797-0.32442,2.2778,0.33925,2.2778,0.89023,0,0.42248-1.2036,1.006-1.5867,0.76925-0.17809-0.11006-0.65184-0.11778-1.0528-0.0172-0.5598,0.1405-0.75972,0.44629-0.86145,1.3177l-0.13247,1.1347,2.6246-0.21297c2.886-0.23417,4.1338,0.18675,4.1338,1.3944,0,0.59012-0.21199,0.61689-4.6094,0.58204-3.5405-0.0281-4.9265,0.0805-5.9768,0.46797-1.512,0.55786-2.0636,0.5938-3.0426,0.19824z"/>
   <path id="path3008" fill="#b0b0b0" d="m574.71,689.81c0-1.2856,4.9988-33.866,5.2295-34.084,0.30679-0.28983,9.6199-2.7837,10.395-2.7837,0.77555,0,10.089,2.4939,10.395,2.7837,0.23069,0.21794,5.2295,32.798,5.2295,34.084,0,0.62634-0.14791,0.63233-15.625,0.63233s-15.625-0.006-15.625-0.63233zm30.236-1.3208c-0.0873-0.55859-1.1923-8.003-2.4557-16.543l-2.2971-15.527-3.4445-0.94251c-1.8945-0.51839-4.1125-1.1188-4.9289-1.3342-1.6139-0.4259-1.2248-0.49163-7.8977,1.3342l-3.4445,0.94251-2.2971,15.527c-1.2634,8.5401-2.3685,15.984-2.4557,16.543l-0.15865,1.0156h14.769,14.769l-0.15865-1.0156zm-8.13-2.093c-0.56007-0.79187-1.2732-1.3514-2.0312-1.5936-2.0193-0.64522-1.8725-0.92275,0.48811-0.92275h2.25l-0.004-1.4844c-0.008-2.6633-0.1633-2.8937-1.8263-2.7036-0.79789,0.0912-1.8023,0.23916-2.232,0.32878l-0.78125,0.16296,0.85937,0.45185c1.2887,0.6776,1.1788,1.8928-0.22434,2.4791-1.2054,0.50365-2.9088,0.58657-3.561,0.17334-0.30536-0.19346-0.0399-0.39858,0.9375-0.72438,1.2201-0.40671,1.3668-0.56017,1.3947-1.4595,0.0234-0.75302-0.0814-0.96181-0.41795-0.83266-0.91033,0.34933-2.8865,0.5533-3.6075,0.37234-0.69618-0.17473-1.6871-1.6555-1.34-2.0025,0.0869-0.0869,0.58301,0.0182,1.1026,0.23335,1.4318,0.59305,9.235-0.31488,8.9802-1.0449-0.0683-0.19581-0.46159-0.31767-0.87388-0.27079-0.41229,0.0469-1.4828,0.16934-2.379,0.27214-1.8436,0.21149-3.0701-0.0611-2.2769-0.50611,0.25781-0.14463,1.3656-0.49522,2.4617-0.7791,2.2208-0.57516,3.4758-1.2686,3.4758-1.9206,0-0.59229-0.43121-0.54438-1.9154,0.21281-0.69603,0.35509-1.6661,0.6036-2.1556,0.55225-0.59351-0.0622-1.1467,0.14771-1.6602,0.63013-0.86651,0.81403-2.1741,0.81537-2.3289,0.003-0.0553-0.29064,0.62117-1.2321,1.5593-2.1699,1.43-1.4294,1.5714-1.674,1.0321-1.7845-0.69532-0.14242-1.7188-0.95339-1.7188-1.3619,0-0.14523,0.70027-0.26407,1.5562-0.26407,0.8559,0,2.1215-0.22619,2.8124-0.50264,1.4041-0.5618,2.6474-0.39497,2.9509,0.39595,0.30074,0.78371-0.12266,1.0201-2.2194,1.2393l-1.9038,0.19898-0.17187,1.2814c-0.0945,0.70474-0.12421,1.329-0.066,1.3873,0.0583,0.0583,0.67644-0.18515,1.3738-0.5409,1.3818-0.70493,2.8652-0.8307,3.8133-0.3233,0.78748,0.42145,0.79366,1.9084,0.0109,2.6168-0.58191,0.52662-0.58038,0.5507,0.0781,1.225,0.59968,0.61408,0.83154,0.65762,2.1624,0.40608,1.2527-0.23675,1.5895-0.19235,2.1094,0.27811,0.34025,0.30792,0.61863,0.83569,0.61863,1.1728,0,0.56753-0.14852,0.59707-2.0033,0.39844l-2.0033-0.21453,0.27707,1.1938c0.38162,1.6442,0.36188,5.6355-0.0315,6.3706-0.53058,0.99139-1.6118,0.72676-2.5709-0.62921zm-13.934-0.6621c-1.405-2.2601-1.3244-2.6741,0.29568-1.5204l0.90761,0.64628,0.0161-0.72441c0.009-0.39842,0.1216-1.6736,0.2506-2.8338s0.15693-2.103,0.0621-2.0952c-0.0949,0.008-0.73497,0.32417-1.4225,0.70313-1.0956,0.60391-1.2592,0.83981-1.3245,1.9102-0.0849,1.3924-0.80949,2.6851-1.505,2.6851-0.79564,0-0.86882-0.88634-0.20505-2.4836l0.63395-1.5255-0.72159-0.1811c-0.4428-0.11114-0.85288-0.55773-1.0614-1.1559-0.3233-0.92741-0.30582-0.96391,0.3594-0.75055,1.6095,0.5162,2.8259,0.52004,4.1533,0.0131,0.97166-0.37108,1.3897-0.70957,1.3897-1.1253,0-0.57936-0.026-0.57872-1.0156,0.0247-1.3314,0.81175-2.1608,0.78356-2.9924-0.10169-0.91577-0.97479-0.86909-1.0725,0.4924-1.0311,1.1219,0.0341,1.1677-0.004,1.0745-0.90186-0.0536-0.51563-0.37418-1.3242-0.71248-1.7969l-0.61508-0.85937h0.7906c1.0111,0,2.0406,1.0248,2.0406,2.0312,0,0.57292,0.16666,0.78125,0.625,0.78125,0.52083,0,0.625-0.20833,0.625-1.25,0-0.6875-0.1478-1.25-0.32845-1.25-0.33945,0-1.371-2.1548-1.1414-2.3843,0.35781-0.35781,2.5915,0.75502,3.0081,1.4986,0.41788,0.74592,0.40843,1.1219-0.0903,3.5938-0.30637,1.5184-0.65942,4.541-0.78455,6.7168-0.30911,5.3752-1.0229,6.2323-2.8042,3.3668zm0.98886-17.776c-0.54763-0.33391-1.1618-0.91742-1.3647-1.2967-0.36272-0.67774-0.34294-0.68611,1.1519-0.48677,2.2666,0.30225,2.3503,0.30788,3.7866,0.25464l1.3281-0.0492v-1.4286c0-1.2901-0.0682-1.4231-0.70312-1.3716-1.3443,0.10889-1.7671-0.0167-2.6388-0.7836l-0.8768-0.77138,2.1094-0.01,2.1094-0.01v-1.0511c0-1.0214-0.0361-1.0511-1.2746-1.0511-1.382,0-2.8706-0.87111-3.0501-1.7849-0.0888-0.45172-0.003-0.48452,0.52633-0.20126,0.9113,0.48771,5.5711,0.41014,7.3247-0.12194,1.4767-0.44808,3.0363-0.24046,3.0363,0.4042,0,0.60751-1.2114,1.3062-2.2647,1.3062-1.7457,0-1.9987,0.19398-1.8552,1.4228,0.1236,1.0587,0.16055,1.0862,1.1987,0.89143,0.79079-0.14835,1.2296-0.0576,1.6763,0.34668,0.80666,0.73002,0.51765,1.0881-0.88295,1.0939-1.4868,0.006-1.7916,0.23379-2.0433,1.526l-0.20687,1.062,2.5314-0.19521c2.836-0.21869,4.3465,0.25139,4.3465,1.3526,0,0.57948-0.23282,0.60688-4.7656,0.56072-3.8525-0.0392-4.9975,0.0521-5.9757,0.47648-1.5464,0.67097-2.0039,0.65899-3.2231-0.0844z"/>
   <path id="path3006" fill="#909090" d="m574.71,689.99c0-1.1187,5.0473-34.093,5.2458-34.271,0.12265-0.10989,2.5082-0.80216,5.3011-1.5384l5.0781-1.3386,5.0781,1.3386c2.793,0.73621,5.1785,1.4285,5.3011,1.5384,0.19846,0.17782,5.2458,33.152,5.2458,34.271,0,0.38782-2.2078,0.45163-15.625,0.45163s-15.625-0.0638-15.625-0.45163zm30.315-0.72025c0.002-0.61037-4.7321-32.684-4.8448-32.822-0.18543-0.2266-9.1584-2.559-9.8447-2.559-0.68631,0-9.6593,2.3324-9.8447,2.559-0.11269,0.13771-4.8471,32.211-4.8448,32.822,0.002,0.51305,0.91054,0.54688,14.69,0.54688s14.688-0.0338,14.69-0.54688zm-8.0356-2.77c-0.47999-0.62115-1.5758-1.4568-2.4352-1.857l-1.5625-0.72765,2.2656-0.018,2.2656-0.018v-1.6932c0-2.6271-0.0643-2.6964-2.296-2.4756-1.8474,0.18285-3.5375,0.69934-2.3618,0.72175,0.63023,0.012,1.5328,0.9917,1.5328,1.6637,0,0.2812-0.27558,0.65876-0.6124,0.83902-0.96076,0.51418-3.3121,0.74002-3.9556,0.37991-0.50021-0.27994-0.37278-0.37908,0.89883-0.69927,1.3988-0.35223,1.4817-0.43175,1.4817-1.4219,0-1.0205-0.0275-1.0428-1.0156-0.82698-2.1694,0.47391-3.3994,0.2862-4.0822-0.623-0.35286-0.46984-0.57944-0.91639-0.5035-0.99233,0.0759-0.0759,0.73145,0.0203,1.4567,0.21389,1.0344,0.27609,2.0985,0.24482,4.9367-0.14505,1.99-0.27336,3.7063-0.5852,3.8141-0.69297,0.10777-0.10777,0.0402-0.3517-0.15017-0.54206-0.25316-0.25315-0.6168-0.25175-1.3539,0.005-1.1916,0.41541-3.3932,0.45428-3.9988,0.0706-0.46617-0.29532,0.69505-0.76498,2.813-1.1378,1.4426-0.25391,3.0837-1.2428,3.0837-1.8582,0-0.63495-0.40788-0.59681-1.9318,0.18061-0.7998,0.40803-1.6433,0.60092-2.2429,0.51291-0.73995-0.1086-1.0945,0.0285-1.5409,0.59604-0.58957,0.74952-1.9008,0.99479-2.2549,0.4218-0.3513-0.56842,0.15995-1.4805,1.2476-2.2258,0.58767-0.40268,1.1922-1.0094,1.3434-1.3483,0.22487-0.50396,0.10292-0.70382-0.66983-1.0978-1.5587-0.79463-1.4073-1.2629,0.40827-1.2629,0.87922,0,2.1034-0.21094,2.7205-0.46875,1.4628-0.61118,2.0876-0.59144,2.7001,0.0853,0.76128,0.84121,0.25034,1.2512-1.8562,1.4896l-1.9132,0.21645-0.17248,1.2859c-0.0949,0.70723-0.12481,1.3335-0.0666,1.3918,0.0582,0.0582,0.67643-0.18516,1.3737-0.5409,1.3941-0.71123,2.3959-0.80598,3.6161-0.34203,0.98846,0.37581,1.1037,1.825,0.20947,2.6342-0.57916,0.52413-0.57608,0.55189,0.14073,1.2687,0.65411,0.65411,0.87299,0.70135,2.0374,0.43972,1.5283-0.34337,2.789,0.25429,2.789,1.3222,0,0.60652-0.11703,0.63013-2.0807,0.41985-1.9572-0.20961-2.0666-0.18791-1.8423,0.36575,0.41575,1.0264,0.56684,5.8514,0.21169,6.7604-0.46772,1.1972-1.3924,1.0952-2.4473-0.26998zm-14.107-0.76642c-1.265-2.0349-1.2411-2.38,0.10954-1.5831,0.99241,0.58554,1.0947,0.59564,1.104,0.10899,0.006-0.29498,0.1367-1.5185,0.29129-2.719s0.2373-2.2264,0.18381-2.2799c-0.0535-0.0535-0.73077,0.21053-1.5051,0.58672-1.308,0.63547-1.409,0.77123-1.4248,1.9148-0.0189,1.3719-0.75788,2.7423-1.4787,2.7423-0.78958,0-0.84638-0.81793-0.16394-2.3607,0.35734-0.80781,0.6497-1.5059,0.6497-1.5514,0-0.0454-0.34942-0.17034-0.77649-0.27753-0.48415-0.12152-0.85124-0.4927-0.97503-0.98593-0.25015-0.99667-0.0358-1.2168,0.76671-0.78726,1.4965,0.8009,4.8258-0.0315,5.1546-1.2888,0.0858-0.32812,0.0616-0.54972-0.0538-0.49246-0.11539,0.0573-0.73341,0.37082-1.3734,0.69678-1.293,0.65856-2.4302,0.40255-3.008-0.6772-0.27332-0.5107-0.18219-0.55636,0.90367-0.4528l1.2076,0.11516-0.18305-1.2033c-0.10067-0.66182-0.4702-1.5197-0.82117-1.9064l-0.63814-0.70312h0.78125c0.94512,0,2.1402,1.1891,2.1402,2.1295,0,0.46147,0.19161,0.68298,0.59081,0.68298,0.93866,0,1.0498-2.0052,0.15759-2.8434-0.37924-0.35628-0.75992-0.91697-0.84596-1.246-0.24098-0.92152,1.4837-0.80291,2.4555,0.16886,0.89736,0.89738,0.9495,1.7198,0.27422,4.3259-0.27106,1.046-0.59334,3.8291-0.71619,6.1847-0.29861,5.7254-0.98557,6.6313-2.8068,3.7016zm0.98886-17.776c-0.54763-0.33391-1.1502-0.89588-1.3391-1.2488-0.31059-0.58034-0.25467-0.64172,0.58471-0.64172,0.51048,0,1.2826,0.13475,1.7157,0.29944,0.43317,0.16469,1.497,0.21541,2.3641,0.11272l1.5765-0.18672v-1.3627-1.3627h-1.2326c-0.88913,0-1.4769-0.22428-2.1094-0.8049l-0.8768-0.80491,1.2045,0.16556c0.6625,0.0911,1.6117,0.0841,2.1094-0.0154,0.78363-0.15672,0.90483-0.32224,0.90483-1.2356,0-1.0397-0.0197-1.0547-1.3888-1.0547-1.018,0-1.623-0.20151-2.2656-0.75466-1.1002-0.94698-0.85085-1.223,0.775-0.85767,1.1564,0.25982,2.5432,0.17515,7.5981-0.46393,1.138-0.14388,1.477-0.0785,1.6275,0.31371,0.27856,0.72592-0.94862,1.45-2.4574,1.45-0.70655,0-1.3506,0.066-1.4313,0.1467s-0.0883,0.6466-0.017,1.2576c0.12602,1.0794,0.16,1.1052,1.2009,0.90993,0.79079-0.14835,1.2296-0.0576,1.6763,0.34668,0.84305,0.76295,0.5055,1.0891-1.1271,1.0891-1.4378,0-1.4729,0.0323-1.8386,1.6883l-0.20028,0.90707,2.5237-0.19461c1.5946-0.12297,2.8029-0.0674,3.282,0.15088,0.78833,0.35918,1.2257,1.0629,0.94398,1.5188-0.0898,0.14524-2.2348,0.24853-4.7666,0.22954-3.6166-0.0271-4.8966,0.0777-5.9708,0.48898-1.7172,0.6574-1.8529,0.65359-3.0658-0.0859z"/>
   <path id="path3004" fill="#6f6f6f" d="m574.71,690.1c0-0.98941,5.0863-34.222,5.2614-34.376,0.11407-0.10064,2.4926-0.78231,5.2855-1.5148l5.0781-1.3318,5.0781,1.3318c2.793,0.73251,5.1714,1.4142,5.2855,1.5148,0.17507,0.15447,5.2614,33.387,5.2614,34.376,0,0.23809-4.6252,0.3382-15.625,0.3382s-15.625-0.10011-15.625-0.3382zm30.314-0.98993c0.002-0.80346-4.7009-32.526-4.8443-32.677-0.0517-0.0542-2.2879-0.71118-4.9694-1.4601l-4.8755-1.3616-4.8755,1.3616c-2.6815,0.74888-4.9178,1.4059-4.9694,1.4601-0.14334,0.15025-4.8462,31.873-4.8443,32.677l0.002,0.70313h14.688,14.688l0.002-0.70313zm-8.0864-2.6835c-0.53679-0.67776-1.5389-1.4575-2.2269-1.7328-0.68799-0.27528-1.2509-0.5849-1.2509-0.68804,0-0.10315,0.87891-0.13944,1.9531-0.0807l1.9531,0.10688,0.0925-2.1137c0.0691-1.5784-0.0172-2.1557-0.34056-2.2798-0.23819-0.0914-1.897,0.0682-3.6862,0.3546-1.7892,0.28644-3.7165,0.5902-4.2828,0.67504-1.1316,0.16955-2.0698-0.43817-2.354-1.5248-0.13092-0.50062-0.0574-0.58065,0.35947-0.39105,1.0327,0.46972,3.6987,0.47345,6.5726,0.009,1.6079-0.25975,2.9823-0.53111,3.0542-0.60301s0.0494-0.34259-0.0499-0.60152c-0.15601-0.40656-0.33822-0.41454-1.3355-0.0584-1.34,0.47848-3.457,0.55543-4.0991,0.149-0.32601-0.20634-0.0764-0.37708,0.9375-0.64125,0.76-0.19803,1.874-0.48772,2.4756-0.64376,1.3716-0.35578,2.5-1.1336,2.5-1.7232,0-0.63472-0.71568-0.56083-2.0196,0.20852-0.72898,0.43011-1.4539,0.61023-2.0839,0.51777-0.72024-0.10571-1.1524,0.0445-1.6983,0.59044-0.85936,0.85937-1.859,0.95301-2.1476,0.20116-0.14512-0.37816,0.25016-0.96637,1.3728-2.0428,0.86714-0.83147,1.5736-1.612,1.5698-1.7346-0.004-0.12253-0.45348-0.43372-0.99946-0.69153-1.65-0.77915-1.421-1.1815,0.75494-1.3264,1.0835-0.0721,2.4306-0.3276,2.9936-0.56767,1.1826-0.5043,2.1014-0.13948,2.1014,0.83434,0,0.4869-0.34386,0.63988-1.9531,0.86892-1.7828,0.25374-1.9531,0.34412-1.9531,1.0362,0,0.41701-0.14557,1.0302-0.32349,1.3626-0.43649,0.81559,0.25911,0.80767,1.8044-0.0205,2.8964-1.5524,5.5225,0.31487,3.3172,2.3587-0.6062,0.56181-0.69433,0.76633-0.33022,0.76633,0.27316,0,0.70109,0.29186,0.95094,0.64858,0.40557,0.57903,0.58339,0.61273,1.6584,0.31424,0.66223-0.18388,1.3095-0.33512,1.4384-0.33607,0.41908-0.003,1.4844,1.2354,1.4844,1.7257,0,0.40186-0.3298,0.44366-2.0833,0.26401-1.9647-0.20129-2.0698-0.17955-1.847,0.38192,0.3975,1.0014,0.57885,5.217,0.27431,6.3766-0.41626,1.585-1.3244,1.6031-2.5538,0.0509zm-14.068-0.71595c-0.54792-0.88141-0.91618-1.6826-0.81835-1.7804,0.0978-0.0978,0.57966,0.0595,1.0707,0.34956l0.89286,0.52742,0.17492-1.3251c0.0962-0.72881,0.26457-2.0545,0.37414-2.946l0.19922-1.6209-1.5865,0.83963c-1.3976,0.73967-1.5868,0.95815-1.5891,1.8349-0.005,1.9973-1.1047,3.4964-1.9466,2.6545-0.30212-0.30212-0.0155-1.3741,0.95442-3.5702,0.0573-0.12971-0.0967-0.23584-0.34219-0.23584-0.58432,0-1.4807-1.0034-1.4807-1.6575,0-0.42319,0.1423-0.46043,0.80159-0.20977,2.2879,0.86986,5.4484-0.23165,5.4484-1.8989,0-0.15264-0.51181,0.0698-1.1374,0.49431-1.3231,0.89788-1.899,0.95542-2.8556,0.28536-0.99305-0.69556-0.85883-1.076,0.37957-1.076,1.0645,0,1.0725-0.0105,0.89616-1.1719-0.0979-0.64453-0.4651-1.4883-0.81607-1.875l-0.63814-0.70312h0.69368c0.92521,0,2.2278,1.345,2.2278,2.3003,0,1.1522,1.1275,0.73429,1.3764-0.5102,0.15345-0.76727,0.0313-1.1363-0.59148-1.7863-1.4743-1.5388-0.80636-2.3908,1.1011-1.4044,1.2291,0.63561,1.4155,1.6319,0.77494,4.1431-0.29477,1.1556-0.63423,3.9996-0.75436,6.3199-0.30747,5.9387-1.0009,6.9316-2.8094,4.0224zm7.013-2.4332c-0.0972-0.15719,0.42189-0.48835,1.1534-0.7359,1.1616-0.3931,1.3187-0.55478,1.2401-1.2767-0.0689-0.63298,0.0479-0.8266,0.49844-0.8266,0.83243,0,1.7201,1.0761,1.4888,1.8049-0.29878,0.94138-3.9111,1.7942-4.3807,1.0343zm-5.6415-15.198c-2.022-1.036-2.2673-2.1995-0.39062-1.8527,1.1656,0.21534,4.9516,0.26496,5.0846,0.0666,0.0271-0.0404-0.0132-0.67114-0.0895-1.4016-0.13673-1.3078-0.15725-1.3281-1.3386-1.3281-0.84418,0-1.4596-0.23433-2.0766-0.79067l-0.8768-0.79068,1.4535,0.19653c2.1466,0.29024,2.7652,0.00094,2.7652-1.2925,0-1.061-0.0151-1.0727-1.3888-1.0727-1.018,0-1.623-0.20151-2.2656-0.75467-1.1069-0.95273-0.89945-1.1643,0.77323-0.78848,1.217,0.27345,2.4731,0.18389,7.5862-0.54091,0.76031-0.10777,1.2337-0.01,1.4993,0.31012,0.59929,0.7221-0.6959,1.4614-2.5602,1.4614-1.4336,0-1.5176,0.0441-1.341,0.70312,0.10364,0.38672,0.19036,0.96487,0.1927,1.2848,0.004,0.49744,0.16607,0.5513,1.1217,0.37202,1.165-0.21856,2.0076,0.17697,2.0076,0.94247,0,0.27094-0.50792,0.44618-1.4742,0.50861-1.425,0.0921-1.4835,0.13491-1.7538,1.2841-0.15381,0.65389-0.21538,1.2532-0.13682,1.3317,0.0786,0.0786,1.2419-0.01,2.5852-0.19686,2.2345-0.31079,2.5112-0.28828,3.2516,0.2645,0.44509,0.33231,0.80926,0.79996,0.80926,1.0392,0,0.35236-0.92051,0.43784-4.8438,0.44982-3.8755,0.0118-5.076,0.12116-6.0056,0.54688-1.4107,0.64606-1.4203,0.64624-2.5882,0.0479z"/>
   <path id="path3002" fill="#4f4f4f" d="m574.8,689.39c0.0938-0.57787,1.2565-8.3474,2.5838-17.266,1.3273-8.9182,2.454-16.263,2.5039-16.322,0.0498-0.0591,2.4212-0.73394,5.2696-1.4996l5.179-1.3922,5.179,1.3922c2.8484,0.7657,5.2198,1.4405,5.2696,1.4996s1.1766,7.4042,2.5039,16.322c1.3273,8.9182,2.49,16.688,2.5838,17.266l0.1705,1.0507h-15.707-15.707l0.17051-1.0507zm30.39-0.27746c-0.0871-0.38671-1.2182-7.8667-2.5136-16.622-1.2953-8.7555-2.4321-15.996-2.5263-16.09-0.0941-0.0941-2.3407-0.7592-4.9924-1.4779l-4.8212-1.3067-4.8212,1.3067c-2.6517,0.7187-4.8983,1.3838-4.9924,1.4779-0.0942,0.0941-1.231,7.3348-2.5263,16.09-1.2953,8.7555-2.4264,16.235-2.5136,16.622l-0.15845,0.70313h15.012,15.012l-0.15845-0.70313zm-8.279-2.7193c-0.53796-0.67923-1.4638-1.4106-2.0575-1.6253-1.594-0.57639-1.3116-0.92251,0.57195-0.70114,2.1078,0.24773,2.3642-0.0579,2.1242-2.5324l-0.18181-1.875-1.7188,0.0636c-0.94531,0.035-3.0193,0.30311-4.6088,0.59584-2.7303,0.50281-2.9229,0.50249-3.4845-0.006-0.32693-0.29587-0.66849-0.8212-0.75902-1.1674-0.13046-0.49884-0.0559-0.5814,0.35947-0.39793,1.0563,0.46663,3.0949,0.51468,6.0211,0.14193,3.3299-0.42419,3.8309-0.61353,3.5513-1.3421-0.17142-0.44672-0.32474-0.45232-1.4561-0.0531-1.3595,0.47967-2.8527,0.54505-3.8171,0.16713-0.4723-0.18509-0.27294-0.31887,0.9375-0.6291,2.6096-0.66885,4.0936-1.2759,4.6666-1.9091,0.51704-0.57132,0.51783-0.61942,0.0134-0.81299-0.30559-0.11726-1.1392,0.0955-1.9386,0.49465-0.86183,0.43042-1.7224,0.63921-2.2327,0.54167-0.60785-0.1162-1.0168,0.0426-1.5266,0.59258-0.80005,0.86327-1.8203,0.98324-2.1027,0.24726-0.13159-0.34294,0.30722-0.98914,1.3728-2.0216,0.86143-0.83466,1.5662-1.6282,1.5662-1.7634,0-0.13521-0.42187-0.43258-0.9375-0.66082-1.3501-0.59761-1.1632-0.88737,0.72434-1.1232,0.91402-0.1142,2.0551-0.41165,2.5357-0.661,1.1159-0.57892,1.8748-0.57525,2.3616,0.0114,0.70014,0.84362,0.13535,1.3146-1.8452,1.5386-1.8389,0.20805-1.9014,0.24485-1.9014,1.1187,0,0.49695-0.14062,0.99045-0.3125,1.0967-0.47716,0.2949-0.37214,0.78125,0.1687,0.78125,0.26466,0,1.0588-0.29468,1.7648-0.65485,2.7862-1.4214,5.2718,0.44726,3.1771,2.3885-0.6062,0.56181-0.69433,0.76633-0.33022,0.76633,0.27316,0,0.71034,0.30507,0.97151,0.67795,0.43751,0.62462,0.57323,0.64847,1.7258,0.30316,1.3242-0.39675,2.3196-0.085,2.6736,0.83724,0.29756,0.77544-0.13224,0.93661-2.0371,0.76387l-1.8857-0.17098,0.24516,1.3725c0.39502,2.2114,0.2896,5.7542-0.18837,6.3301-0.65065,0.78399-1.1447,0.62224-2.2108-0.72378zm-13.522,0.0631c-0.23695-0.47265-0.6853-1.2461-0.99633-1.7188-0.63891-0.97093-0.25956-1.1299,0.89343-0.37447,0.72788,0.47693,0.74297,0.46537,0.91737-0.70312,0.0975-0.65342,0.26624-1.983,0.37493-2.9547l0.19762-1.7667-1.5947,0.76321c-1.4702,0.70363-1.5947,0.84887-1.5947,1.8603,0,1.3315-0.77937,2.9411-1.4241,2.9411-0.77613,0-0.82454-0.74308-0.15082-2.3148,0.75517-1.7617,0.75343-1.7477,0.21708-1.7477-0.55124,0-1.4547-1.0115-1.4547-1.6287,0-0.43251,0.1411-0.4371,1.2882-0.0419,1.0209,0.35171,1.5235,0.36933,2.4219,0.0849,1.689-0.53477,2.5399-1.1647,2.5399-1.8803,0-0.63558-0.005-0.63576-0.85937-0.0338-1.3627,0.95976-2.2055,1.1111-3.0622,0.54974-1.0689-0.70039-0.95479-1.1125,0.30815-1.1125,1.0647,0,1.0725-0.0103,0.89523-1.1719-0.0984-0.64453-0.3708-1.3939-0.60536-1.6652-0.55589-0.64307-0.5392-0.91289,0.0565-0.91289,0.75562,0,2.017,1.4507,2.017,2.3197,0,0.61677,0.11755,0.74227,0.54688,0.58387,1.2446-0.4592,1.3387-1.6482,0.23437-2.9606-1.3172-1.5654-0.87951-2.2765,0.90168-1.465,1.323,0.6028,1.6018,1.8231,0.97246,4.2564-0.30005,1.1601-0.6394,4.0077-0.75412,6.328-0.20709,4.1887-0.56983,5.625-1.4206,5.625-0.23917,0-0.62874-0.38672-0.86569-0.85938zm6.6809-3.1525c-0.30773-0.20641-0.0524-0.40164,0.9375-0.71693,1.2112-0.38578,1.3505-0.52717,1.2704-1.2898-0.0696-0.66223,0.0435-0.85647,0.49844-0.85647,0.63334,0,1.6228,0.91565,1.6228,1.5018,0,0.91629-3.3991,1.9852-4.3291,1.3614zm-5.8324-15.218c-0.97802-0.48279-1.8968-1.6287-1.5688-1.9567,0.10337-0.10337,0.82084-0.0187,1.5944,0.18821,1.8303,0.48954,4.9333,0.17242,4.6834-0.47864-0.0948-0.24716-0.17244-0.85975-0.17244-1.3613,0-0.85345-0.0791-0.91194-1.2326-0.91194-0.8511,0-1.5029-0.23252-2.106-0.75126l-0.8734-0.75127,2.106,0.16905,2.106,0.16905v-1.253-1.253l-1.6208-0.15574c-1.1866-0.11401-1.7747-0.34582-2.1953-0.86527-0.31601-0.39025-0.53135-0.75276-0.47853-0.80557,0.0528-0.0528,0.69198,0.0552,1.4204,0.24013,0.97463,0.24739,2.0035,0.23413,3.8962-0.0502,3.9323-0.59077,5.0382-0.57538,5.1658,0.0719,0.13285,0.67347-1.0467,1.1728-2.7706,1.1728-1.3174,0-1.334,0.0251-1.0283,1.5535,0.18366,0.91831,0.28186,0.99051,1.1193,0.82301,1.0563-0.21125,2.1168,0.24755,2.1168,0.91575,0,0.33329-0.37735,0.45776-1.3878,0.45776-1.5694,0-1.596,0.0236-1.9083,1.6883l-0.22789,1.2148,1.9964-0.25802c2.9163-0.37691,3.6936-0.30544,4.404,0.40494,1.1776,1.1776,0.51225,1.3725-3.9201,1.1486-3.6967-0.18673-4.309-0.14092-6.0558,0.45309-2.2834,0.77649-1.9018,0.75391-3.062,0.1812z"/>
   <path id="path3000" fill="#2f2f2f" d="m574.8,689.58c0.0907-0.47265,1.2581-8.2422,2.5943-17.266,1.3362-9.0234,2.4564-16.446,2.4894-16.495,0.033-0.0491,2.3988-0.71334,5.2573-1.4762l5.1972-1.387,5.1972,1.387c2.8585,0.76282,5.2243,1.4271,5.2573,1.4762s1.1532,7.472,2.4894,16.495c1.3362,9.0234,2.5036,16.793,2.5943,17.266l0.16493,0.85938h-15.703-15.703l0.16492-0.85938zm30.41-0.625c-0.0981-0.47265-1.2268-7.9464-2.5081-16.608-1.2814-8.6619-2.4428-15.849-2.5808-15.971-0.1381-0.12204-2.3956-0.80374-5.0167-1.5149l-4.7656-1.293-4.7656,1.293c-2.6211,0.71115-4.8786,1.3928-5.0167,1.5149-0.1381,0.12204-1.2995,7.3089-2.5808,15.971-1.2814,8.6619-2.41,16.136-2.5081,16.608l-0.17836,0.85938h15.05,15.05l-0.17836-0.85938zm-8.297-2.6103c-0.56669-0.70517-1.4691-1.4731-2.0054-1.7065-0.97281-0.4234-0.97097-0.42442,0.78836-0.43662,2.0955-0.0145,2.2128-0.18887,1.9322-2.8732l-0.1989-1.9029-2.0609,0.19836c-1.1335,0.10909-3.1459,0.42683-4.4721,0.70609-2.2383,0.47131-2.468,0.47052-3.2031-0.0111-1.4532-0.95218-1.0174-1.3881,1.2092-1.2094,1.1006,0.0883,3.1748-0.006,4.6094-0.20883,3.6076-0.511,3.7587-0.5666,3.3439-1.2308-0.31524-0.50478-0.47216-0.51117-2.1053-0.0857-1.5725,0.40968-3.8427,0.30719-3.3828-0.15272,0.0907-0.0907,1.1862-0.42763,2.4343-0.74868,2.4359-0.62657,4.1667-1.8637,3.5168-2.5137-0.2467-0.2467-0.79806-0.10981-1.9896,0.49398-1.0659,0.54013-1.937,0.77753-2.4654,0.67185-0.5988-0.11976-1.0158,0.043-1.561,0.60951-0.83799,0.87067-1.6822,0.87087-1.8498,0.00031-0.0727-0.37734,0.39169-1.0434,1.3245-1.8998,0.79003-0.72534,1.4355-1.4466,1.4345-1.6029-0.001-0.15624-0.45812-0.55612-1.0156-0.88861l-1.0136-0.60454,1.6811-0.22564c0.92461-0.1241,2.2375-0.47652,2.9175-0.78316,1.3799-0.62225,2.2764-0.35074,2.2764,0.68943,0,0.42994-0.25543,0.61343-0.9375,0.67346-2.5126,0.22117-2.8962,0.37895-3.0465,1.2533-0.0805,0.46841-0.25961,1.1185-0.398,1.4447-0.21594,0.50899-0.14466,0.56796,0.50268,0.41592,0.41486-0.0974,1.3908-0.42223,2.1688-0.72175,1.2502-0.48132,1.522-0.49306,2.3399-0.10104,1.2404,0.59451,1.3304,1.4029,0.27846,2.5009-0.47772,0.49863-0.70712,0.9066-0.50979,0.9066,0.19734,0,0.64741,0.3098,1.0002,0.68844,0.58654,0.62958,0.75458,0.65776,1.9653,0.32967,1.2285-0.33291,1.3794-0.30402,2.0938,0.40105,1.0458,1.0322,0.56237,1.3586-1.6319,1.1017l-1.7995-0.21065,0.23699,1.5793c0.33591,2.2383,0.19907,5.7476-0.24498,6.2827-0.59715,0.71952-1.0607,0.54176-2.1625-0.82933zm-13.522,0.11026c-0.23695-0.47265-0.6853-1.2461-0.99633-1.7188-0.63547-0.96569-0.35944-1.1057,0.70706-0.35875,0.3931,0.27535,0.78454,0.43083,0.86985,0.34552,0.19265-0.19265,0.72717-3.8196,0.73569-4.992l0.006-0.86464-1.5625,0.79178c-1.3371,0.67758-1.5625,0.9233-1.5625,1.7037,0,1.8798-0.9903,3.4321-1.7744,2.7814-0.30671-0.25455-0.25934-0.66427,0.22373-1.9352,0.7318-1.9254,0.71836-1.7686,0.15159-1.7686-0.48229,0-1.6138-1.4663-1.3416-1.7386,0.0861-0.0861,0.77311,0.008,1.5267,0.20915,1.2168,0.32476,1.5538,0.28659,3.0108-0.34093,1.3007-0.56023,1.6406-0.85597,1.6406-1.4274v-0.72077l-1.3969,0.78076c-1.2477,0.69737-1.4873,0.73675-2.2426,0.36863-1.3076-0.6373-1.2918-1.1934,0.0339-1.1934h1.134l-0.20999-1.1719c-0.1155-0.64453-0.4257-1.4188-0.68933-1.7207-0.62553-0.71616-0.35523-0.95176,0.65241-0.56866,0.94904,0.36082,1.5882,1.4076,1.3697,2.2432-0.18025,0.68924-0.18797,0.68665,0.8598,0.28828,1.0562-0.40156,1.0649-1.6358,0.0204-2.8772-1.3214-1.5703-0.87927-2.2764,0.91375-1.4595,1.1902,0.54228,1.5189,1.9463,0.94027,4.0165-0.26421,0.94531-0.58844,3.7578-0.72051,6.25-0.23747,4.4815-0.58915,5.9375-1.4341,5.9375-0.23918,0-0.62874-0.38672-0.86569-0.85938zm6.7942-3.1214c-0.48247-0.12139-0.30716-0.27448,0.78125-0.68223,1.2338-0.46222,1.3924-0.62757,1.3134-1.3689-0.0693-0.64916,0.0454-0.84313,0.49844-0.84313,0.63335,0,1.6228,0.91565,1.6228,1.5018,0,0.84959-2.7557,1.7598-4.2158,1.3924zm-5.6503-15.231c-1.0558-0.44996-2.2088-1.6297-1.8972-1.9412,0.11659-0.11659,0.89165-0.0378,1.7223,0.17511,0.88855,0.22773,2.1437,0.30308,3.0487,0.18303l1.5383-0.20406-0.007-1.3744c-0.007-1.3606-0.0183-1.3744-1.1011-1.3766-0.89649-0.002-3.125-0.95971-3.125-1.3433,0-0.0565,0.85422-0.0409,1.8983,0.0347,1.044,0.0755,2.0302,0.005,2.1914-0.15585,0.16123-0.16123,0.2035-0.74139,0.0939-1.2892-0.17743-0.8871-0.31632-0.99609-1.2694-0.99609-1.2633,0-2.7575-0.70352-3.0361-1.4295-0.15312-0.39903-0.0736-0.46352,0.35275-0.28622,1.1045,0.4593,3.4484,0.52465,5.5677,0.15525,4.1999-0.73207,4.1811-0.73134,4.396-0.1711,0.31052,0.80921-0.27032,1.1444-2.3027,1.3286l-1.8679,0.16937,0.31396,1.2369c0.29822,1.1749,0.3634,1.2276,1.3001,1.0519,1.0933-0.20511,2.2884,0.43035,1.9225,1.0223-0.12234,0.19795-0.82325,0.35991-1.5576,0.35991-1.3264,0-1.3373,0.009-1.657,1.4062l-0.3218,1.4062,1.1285-0.0136c0.62069-0.007,1.7278-0.12953,2.4603-0.2712,1.4984-0.28983,3.3558,0.38671,3.3558,1.2223,0,0.39922-0.64888,0.45354-4.375,0.36623-3.7228-0.0872-4.6345-0.0111-6.1161,0.51085-1.4794,0.52117-1.8786,0.55475-2.6562,0.22334z"/>
   <path id="path2998" fill="#020202" d="m574.83,689.58c0.0859-0.30078,1.2437-7.9297,2.5728-16.953,1.3291-9.0234,2.5168-16.523,2.6393-16.665,0.12253-0.14238,2.4899-0.86928,5.2608-1.6153l5.038-1.3565,5.038,1.3565c2.7709,0.74606,5.1383,1.473,5.2608,1.6153,0.12254,0.14238,1.3102,7.6417,2.6393,16.665,1.3291,9.0234,2.4868,16.652,2.5728,16.953,0.14728,0.51564-0.73867,0.54688-15.511,0.54688s-15.658-0.0313-15.511-0.54688zm30.51,0.15625c-0.006-0.45686-4.9893-33.447-5.0597-33.497-0.0525-0.0376-2.3103-0.6623-5.0173-1.3882l-4.9219-1.3198-4.9219,1.3198c-2.707,0.72588-4.9648,1.3506-5.0174,1.3882-0.0705,0.0505-5.0535,33.04-5.0597,33.497-0.00063,0.043,6.7489,0.0781,14.999,0.0781,8.25,0,15-0.0352,14.999-0.0781zm-8.3457-3.4011c-0.65146-0.71043-1.6063-1.4784-2.122-1.7065-0.91945-0.40684-0.90325-0.41506,0.84093-0.42706,0.97814-0.007,1.8722-0.164,1.9869-0.3495,0.11465-0.1855,0.11175-1.2402-0.006-2.3438l-0.21487-2.0065-1.3032,0.0109c-1.1556,0.01-4.107,0.47164-6.9738,1.0916-0.76747,0.16596-1.1273,0.0684-1.6406-0.44496-0.87503-0.87503-0.85339-1.391,0.0456-1.0866,1.2025,0.40717,9.1188-0.28009,9.4529-0.82065,0.075-0.12141-0.0349-0.44941-0.24419-0.72889-0.3499-0.46714-0.51603-0.46807-2.0587-0.0116-1.2026,0.3559-1.9552,0.41515-2.6562,0.20915-0.9441-0.2774-0.9008-0.30662,1.2416-0.83816,2.4766-0.61444,4.1864-1.5136,4.1864-2.2016,0-0.8181-0.53111-0.81268-2.3588,0.0241-1.4264,0.65304-1.9166,0.75152-2.3605,0.47428-0.46232-0.28873-0.72734-0.18286-1.5157,0.60552-0.52549,0.52549-1.1305,0.89713-1.3446,0.82587-0.87124-0.29009-0.52632-1.2307,0.99454-2.712,1.7579-1.7123,1.9474-2.2095,0.8421-2.2095-0.40864,0-0.90165-0.19118-1.0956-0.42484-0.2876-0.34653-0.0419-0.45691,1.3328-0.59879,0.92698-0.0957,2.1426-0.41038,2.7014-0.69934,0.7907-0.40889,1.1796-0.45083,1.7539-0.18915,1.5154,0.69047,0.74869,1.5805-1.397,1.6216-1.5844,0.0304-2.0788,0.31751-2.1142,1.228-0.0167,0.42969-0.13724,1.0273-0.26781,1.3281-0.18857,0.43439-0.0859,0.54484,0.49916,0.53694,0.4051-0.005,1.0095-0.2164,1.3432-0.46875,0.33363-0.25234,1.2547-0.45881,2.0469-0.45881,2.2744,0,2.8292,1.0176,1.3797,2.5306-0.79779,0.83271-0.80026,0.84938-0.15625,1.0538,0.3599,0.11423,0.65436,0.41471,0.65436,0.66774,0,0.36468,0.39518,0.4413,1.9062,0.36957,1.7157-0.0815,1.957-0.0154,2.414,0.66106l0.5078,0.75155-2.132-0.17113-2.132-0.17114,0.20995,1.4c0.3283,2.1892,0.22406,6.0521-0.17633,6.5345-0.54112,0.65201-0.77585,0.55494-2.0695-0.85581zm-13.922-0.62616c-0.59541-0.92175-1.0359-1.7301-0.97895-1.7964,0.057-0.0662,0.4746,0.12263,0.92802,0.41972,0.45343,0.2971,0.93731,0.42161,1.0753,0.27671,0.13798-0.14491,0.35039-1.4924,0.47202-2.9945l0.22116-2.731-1.5918,0.69979c-1.4722,0.6472-1.5927,0.78199-1.6038,1.7935-0.0149,1.3588-0.62654,2.6174-1.3387,2.7545-0.67653,0.13029-0.71395-1.0035-0.0703-2.1295,0.61366-1.0735,0.57606-1.4863-0.15658-1.7189-0.61417-0.19492-1.4347-1.3253-1.1608-1.5992,0.0767-0.0767,0.75611,0.0214,1.5097,0.21805,1.1797,0.30788,1.5873,0.27125,2.9327-0.26356,1.2837-0.51032,1.5808-0.77475,1.6653-1.482l0.10282-0.86088-1.0772,0.66574c-1.2754,0.78821-2.4882,0.85507-3.1686,0.17468-0.69-0.69-0.62699-0.77192,0.52456-0.682l1.0156,0.0793-0.10674-1.4062c-0.0587-0.77344-0.2517-1.582-0.42888-1.7969-0.2389-0.28967-0.16064-0.39062,0.30284-0.39062,0.84427,0,1.4307,0.77537,1.4307,1.8916,0,0.99379,0.0172,1.0054,1.0677,0.72388,1.029-0.27575,0.98246-2.1287-0.0781-3.1116-1.0943-1.0141-1.0532-1.827,0.0781-1.5447,1.6273,0.40614,2.0361,1.0649,1.8476,2.9775-0.0932,0.94574-0.31242,2.3523-0.48711,3.1258-0.17468,0.77344-0.32708,2.6719-0.33867,4.2188-0.0237,3.1616-0.36492,5.024-1.0452,5.7042-0.40507,0.40507-0.58944,0.25975-1.5426-1.2158zm7.5817-2.8805c1.6693-0.54616,1.9472-0.80875,1.7381-1.642-0.2318-0.92357,0.3825-0.99829,1.4044-0.17084,1.4026,1.1357-0.0183,2.265-2.7722,2.2034l-1.464-0.0328,1.0938-0.35786zm-7.2496-15.528c-0.52334-0.52334-0.86811-1.0349-0.76617-1.1369,0.10194-0.10195,0.81707-0.008,1.5892,0.2077,0.88721,0.2484,2.0405,0.3135,3.134,0.17688l1.7301-0.21616v-1.3838c0-1.4116-0.0997-1.507-1.4622-1.3989-0.37455,0.0297-1.148-0.20079-1.7188-0.51228l-1.0378-0.56634,2.102-0.0922,2.102-0.0922-0.0581-1.314-0.0581-1.314-1.4921-0.002c-1.2176-0.002-1.6511-0.16292-2.3564-0.87593l-0.86428-0.87375,0.87972,0.32906c1.2941,0.48406,4.3581,0.40092,6.7816-0.18401,2.2289-0.53797,3.12-0.44306,3.12,0.33232,0,0.51981-1.782,1.1138-3.3496,1.1165-0.65993,0.001-0.96443,0.13607-0.88547,0.39236,0.0662,0.21485,0.20941,0.79461,0.31827,1.2884,0.17856,0.80986,0.2966,0.88173,1.206,0.73416,1.0892-0.17675,2.2888,0.44305,1.9424,1.0036-0.11329,0.18331-0.81525,0.33329-1.5599,0.33329-1.219,0-1.3744,0.0856-1.5589,0.85937-0.11273,0.47266-0.28375,1.1233-0.38003,1.4459-0.16579,0.55548-0.0174,0.57474,2.8002,0.3635,2.8053-0.21033,3.0146-0.18371,3.6643,0.46595,1.0481,1.0481,0.38398,1.2122-4.0978,1.0129-3.2038-0.14249-4.2823-0.0769-5.5499,0.33774-2.2728,0.74339-3.0782,0.65909-4.1742-0.43693z"/>
  </g>
 </g>
</svg>
